<svg xmlns="http://www.w3.org/2000/svg" viewBox="0 0 186.64 63.38"><defs><style>.cls-1{fill:#fff;}.cls-1,.cls-2{fill-rule:evenodd;}.cls-2{fill:#e5262f;}</style></defs><title>Recurso 1</title><g id="Capa_2" data-name="Capa 2"><g id="Capa_2-2" data-name="Capa 2"><path class="cls-1" d="M61.91,18.42a31.12,31.12,0,0,1-3.53,32.3l-6-5.84a23.13,23.13,0,0,0,2.3-22.21,8.38,8.38,0,0,0,7.2-4.25Z"/><path class="cls-2" d="M54.59,9.76a4.76,4.76,0,1,1-4.88,4.76,4.81,4.81,0,0,1,4.88-4.76Z"/><path class="cls-1" d="M15.89,59h0A31.56,31.56,0,0,1,0,31.69C0,14.19,14.52,0,32.44,0A32.76,32.76,0,0,1,52.35,6.67a8.25,8.25,0,0,0-5.86,5.89A24.35,24.35,0,0,0,32.44,8.15c-13.31,0-24.1,10.54-24.1,23.54A23.21,23.21,0,0,0,15.89,48.8V30.5A16.4,16.4,0,0,1,32.44,15,16.37,16.37,0,0,1,49,31.16,16.36,16.36,0,0,1,32.44,47.34l-7.77,0V62.46l-.33-.08h0a32.88,32.88,0,0,1-7.18-2.74h0l-.56-.3,0,0L16,59l-.06,0,0,0Zm8.4-19.9,8.18,0a8,8,0,1,0-8.18-8.44v8.42ZM55.66,53.82a32.92,32.92,0,0,1-26.82,9.36V55a25.21,25.21,0,0,0,3.6.26,24.31,24.31,0,0,0,17.32-7.17l5.9,5.76Z"/><path class="cls-1" d="M154,40.5l6.88,0A6.89,6.89,0,1,0,154,33.26V40.5Zm-7.74,21.41V33.12a14.6,14.6,0,1,1,14.59,15.21l-6.86,0V61.91Z"/><path class="cls-1" d="M136.82,55.66a21.23,21.23,0,0,1-15.06,6.25h0a21.23,21.23,0,0,1-15.08-6.26.18.18,0,0,1-.06-.09,21.33,21.33,0,1,1,30.26,0l0,0Zm-6.58-25.75-.08-.05A13.58,13.58,0,1,0,117.7,53.5l0,0,.24.07.13,0h0a13.86,13.86,0,0,0,3.58.48,13.61,13.61,0,0,0,8.5-24.21Z"/><path class="cls-1" d="M104.05,57.93a21.28,21.28,0,0,1-12.4,4h0a21.22,21.22,0,0,1-15.07-6.26.31.31,0,0,1-.07-.09,21.4,21.4,0,0,1,1.33-31.29.31.31,0,0,1,.1-.15,21.3,21.3,0,0,1,26.15-1,25.05,25.05,0,0,0-4.52,6.36,13.58,13.58,0,1,0-12,24l0,0,.24.07.13,0h0a13.74,13.74,0,0,0,3.58.48,13.53,13.53,0,0,0,7.91-2.55,24.94,24.94,0,0,0,4.38,6.22l.12.14Z"/><path class="cls-1" d="M186.38,29.16V61.91h-7.75V29.16a7.05,7.05,0,0,0,7.75,0Z"/><path class="cls-1" d="M182.51,19.14a4.14,4.14,0,1,1-4.14,4.13,4.13,4.13,0,0,1,4.14-4.13Z"/><path class="cls-2" d="M181,12.68H76a5.62,5.62,0,0,1-5.61-5.6h0A5.63,5.63,0,0,1,76,1.47H181a5.63,5.63,0,0,1,5.6,5.61h0a5.62,5.62,0,0,1-5.6,5.6Z"/><path class="cls-1" d="M179,10.56c1.57,0,2.62-.82,2.62-2.19v0c0-1.26-.93-1.76-2.42-2.1-.9-.21-1.12-.34-1.12-.65v0c0-.24.21-.43.65-.43a3.18,3.18,0,0,1,1.81.66l.9-1.32a4,4,0,0,0-2.66-.89,2.21,2.21,0,0,0-2.51,2.15v0c0,1.39,1.06,1.79,2.44,2.12.88.21,1.09.36,1.09.64v0c0,.29-.26.46-.74.46A3.26,3.26,0,0,1,177,8.2l-1,1.24a4.44,4.44,0,0,0,3,1.12Zm-9.16-.12h5.26V8.86h-3.49V7.79h3.11V6.32h-3.11v-1h3.44V3.71h-5.21v6.73Zm-7.71,0h1.78V6.75l2.76,3.69h1.58V3.71h-1.78V7.27l-2.67-3.56h-1.67v6.73Zm-4.86-1.55a1.71,1.71,0,0,1-1.65-1.81v0a1.68,1.68,0,0,1,1.63-1.8,1.73,1.73,0,0,1,1.67,1.82v0a1.69,1.69,0,0,1-1.65,1.79Zm0,1.69a3.46,3.46,0,0,0,3.5-3.5v0a3.49,3.49,0,1,0-7,0v0a3.43,3.43,0,0,0,3.48,3.48Zm-6.69-.14h1.81V3.71h-1.81v6.73Zm-4.11.14a3.25,3.25,0,0,0,2.87-1.52l-1.35-1a1.77,1.77,0,0,1-1.47.82A1.64,1.64,0,0,1,145,7.08v0a1.64,1.64,0,0,1,1.54-1.78,1.73,1.73,0,0,1,1.42.79L149.28,5a3.14,3.14,0,0,0-2.75-1.4,3.39,3.39,0,0,0-3.41,3.5v0a3.35,3.35,0,0,0,3.34,3.48Zm-8.14-2.79.73-1.91.72,1.91Zm-2.88,2.65h1.89l.46-1.2h2.5l.47,1.2h1.93l-2.76-6.77H138.2l-2.76,6.77Zm-3.62,0h1.8V5.35h1.94V3.71h-5.68V5.35h1.94v5.09Zm-9.29,0h1.78V6.75l2.77,3.69h1.57V3.71h-1.78V7.27l-2.66-3.56h-1.68v6.73Zm-6.62,0h5.26V8.86h-3.48V7.79h3.11V6.32h-3.11v-1h3.44V3.71h-5.22v6.73Zm-3.93.12c1.58,0,2.62-.82,2.62-2.19v0c0-1.26-.92-1.76-2.41-2.1-.9-.21-1.12-.34-1.12-.65v0c0-.24.21-.43.65-.43a3.18,3.18,0,0,1,1.81.66l.9-1.32a4,4,0,0,0-2.67-.89,2.22,2.22,0,0,0-2.51,2.15v0c0,1.39,1.07,1.79,2.45,2.12.88.21,1.09.36,1.09.64v0c0,.29-.26.46-.74.46A3.26,3.26,0,0,1,110,8.2l-1,1.24a4.42,4.42,0,0,0,3,1.12Zm-9.16-.12h5.26V8.86H104.6V7.79h3.11V6.32H104.6v-1H108V3.71h-5.22v6.73Zm-5.3-3.5V5.33H98.7c.6,0,1,.27,1,.8v0c0,.49-.35.79-1,.79Zm-1.79,3.5h1.79v-2h.79l1.3,2h2.08L100.14,8.1A2.13,2.13,0,0,0,101.48,6V6a2.11,2.11,0,0,0-.58-1.56,2.73,2.73,0,0,0-2.11-.74H95.73v6.73ZM90.85,7.06V5.28h.84c.65,0,1,.31,1,.89h0c0,.53-.39.88-1,.88Zm-1.79,3.38h1.79V8.52h.89c1.61,0,2.79-.84,2.79-2.42v0c0-1.49-1.06-2.37-2.7-2.37H89.06v6.73Zm-6.62,0H87.7V8.86H84.22V7.79h3.11V6.32H84.22v-1h3.43V3.71H82.44v6.73Zm-5.3-3.5V5.33h1.18c.6,0,1,.27,1,.8v0c0,.49-.35.79-1,.79Zm-1.8,3.5h1.8v-2h.79l1.3,2h2.08L79.76,8.1A2.13,2.13,0,0,0,81.09,6V6a2.11,2.11,0,0,0-.57-1.56,2.75,2.75,0,0,0-2.11-.74H75.34v6.73Z"/></g></g></svg>